<!-- icon666.com - MILLIONS vector ICONS FREE --><svg id="Layer_1" enable-background="new 0 0 68 68" viewBox="0 0 68 68" xmlns="http://www.w3.org/2000/svg"><g id="_x34_0"><path d="m35.4 28.9c.6 1 1.2 2 1.8 3 .5.9 1.4 1.6 2.4 1.8 9.3 1.9 10.1 2.3 12.1 2.2l4.4 29.5c.1.5.6.9 1.1.8s.9-.6.8-1.1l-6-40.1c-.3-1.8-1.9-3-3.8-2.8-1.8.3-3 2-2.7 3.8l.4 2.5c-1.2-.3-2.5-.5-3.7-.8-.1 0-.2-.1-.3-.2l-5.2-8.9c-.8-1.3-2.3-2.2-3.9-2.2h-4c-2.6 0-4.8 1.6-5.7 4.1l-1.5-.5c-3.8-1.1-7.7 1.4-8.2 5.4l-.9 8.3-1 8c-.1.5.3 1 .9 1.1.5.1 1-.3 1.1-.9l.5-4c.7.5 1.6.8 2.4.8h3.5c-.7 4-1.2 6.9-1.5 8.6 0 .3-.2.6-.3.8-1.6 2.1-3.8 5.3-7.3 10.1-1.4 2-.9 4.8 1.3 6 1.8 1 4.1.6 5.4-1.1 1.1-1.4 1.2-1.6 2.4-3.3.3-.4.2-1.1-.2-1.4s-1.1-.2-1.4.2c-1.2 1.6-1.3 1.7-2.4 3.2-.7 1.2-1.9 1.4-2.9.9-1.1-.6-1.4-2.1-.7-3.1 3.4-4.7 5.8-8.1 7.3-10.1.4-.5.6-1.1.7-1.6 3.3-19.6 2.5-18.1 4.7-26.4.4-1.8 2-3 3.9-3h4c.9 0 1.7.5 2.1 1.2l5.2 8.9c.3.6.9 1 1.6 1.2 3.9.8 7.9 1.7 9.2 2l.3 2.3c-1.7 0-2.7-.4-11.4-2.2-.5-.1-.9-.4-1.1-.8-1.1-1.9-2.9-5-3-5.1-.3-.5-.9-.7-1.3-.5-.3.1-.6.4-.7.7 0 .1.1-1.2-2.5 13-.2.7.1 1.4.7 1.8 1.9 1.3 3.8 2.6 5.9 3.8 1 .6 1.6 1.3 2 2.6 1.4 4.5 2.9 8.8 4.5 13.7.6 2-.6 3.3-2.1 3.3-1 0-1.8-.6-2.1-1.5-.8-2.3-3.4-10.2-4.1-12.5-.3-.9-.9-1.7-1.7-2.3-.4-.3-1.9-1.3-6.8-4.7-.2-.1-.6-.4-1.2-.2-.5.2-.6.8-.7 1-.1.3-.6 3.9-.7 4.5-.2 1.1-.7 2.1-1.6 3.2-.6.7-1.3 1.7-2.2 2.9-.3.4-.2 1.1.2 1.4s1.1.2 1.4-.2c.9-1.2 1.6-2.2 2.2-2.9 1.1-1.4 1.8-2.8 2-4.2.1-.7.4-2.7.5-3.4 1.9 1.3 3.8 2.6 5.7 4 .4.3.8.7.9 1.2.7 2.3 3.3 10.3 4.1 12.5.6 1.7 2.1 2.8 4 2.8h.1c2.7 0 5-2.5 4-5.9-1.4-4.2-3-9.1-4.5-13.7-.5-1.7-1.4-2.9-2.9-3.7-1.9-1.1-3.6-2.3-5.5-3.6.5-1.7.4-1.1 2-10.2zm-15.2 7.9h-3.8c-1.2 0-2.1-1-2-2.2l1-9c.3-2.7 3-4.5 5.6-3.7l1.7.5c-2.2 9.2-2.1 12.1-2.5 14.4zm27.9-7.8-.5-3.3c-.1-.7.4-1.4 1.1-1.5s1.4.4 1.5 1.1l.6 4.2z"></path><path d="m34.1 14.8c3.7 0 6.5-2.9 6.5-6.5s-2.9-6.5-6.5-6.5c-3.6 0-6.5 3-6.5 6.5 0 3.6 2.9 6.5 6.5 6.5zm-.1-11c.1 0 .1 0 0 0 2.5 0 4.5 2 4.5 4.5s-2 4.5-4.5 4.5c-2.5 0-4.5-2-4.5-4.5s2.1-4.5 4.5-4.5z"></path></g></svg>